<?xml version="1.0" encoding="utf-8"?>
<!-- Generator: Adobe Illustrator 22.1.0, SVG Export Plug-In . SVG Version: 6.00 Build 0)  -->
<svg version="1.1" id="Layer_1" xmlns="http://www.w3.org/2000/svg" xmlns:xlink="http://www.w3.org/1999/xlink" x="0px" y="0px"
	 viewBox="0 0 162 38" style="enable-background:new 0 0 162 38;" xml:space="preserve">
<style type="text/css">
	.st0{fill:#00BBE3;}
</style>
<g>
	<path class="st0" d="M30,4.5c-2.1-0.8-4.8-0.2-6.7,0.8c-1.7,0.9-3.7,3.3-1,4.4c2,0.7,4.6,0.2,6.4-0.8C30.4,8,32.8,5.6,30,4.5z"/>
	<path class="st0" d="M28.5,13.4c-1.9-1.3-4.1-0.9-6.3-1.1c-1.7-0.2-4.2-0.9-4.5-2.9c-0.1-1,0.8-1.8,0.6-2.7c-0.2-1-1.6-1.1-2.3-1
		c-2,0.2-4.2,1.1-5.5,2.7C10,9,9.5,10,10.3,10.6c0.8,0.6,2,0.3,2.9,0.3c2,0.1,4,1.1,4.2,3.3c0.1,2.2-1.7,4-0.5,6.1
		c1.1,1.9,3.5,2.5,5.5,2.4c2.4-0.1,4.9-1.2,6.5-3C30.5,17.8,30.8,15,28.5,13.4z"/>
	<path class="st0" d="M13.1,13.6C9.4,10.6,0,18.4,3.8,21.1c2,1.4,5.2-0.2,6.8-1.4C12.1,18.6,15.3,15.4,13.1,13.6z"/>
	<path class="st0" d="M39.7,22.5c0.4,0,1.3,0.2,1.5-0.1c0.1-0.2,0.1-1.8,0-1.9c-0.1-0.1-0.8,0-1,0c-0.4,0-0.9,0-1.2-0.4
		c-0.3-0.4-0.2-0.9-0.2-1.3c0-3.2,0-6.3,0-9.5c0-0.7,0-1.5,0-2.2c0-0.3,0.1-1.1,0-1.3c-0.1-0.2-2.2-0.3-2.4-0.1c-0.1,0.2,0,0.8,0,1
		c0,0.7,0,1.4,0,2.1c0,1.8,0,3.6,0,5.4c0,1.5,0,3.1,0,4.6C36.4,20.9,37.5,22.5,39.7,22.5z"/>
	<path class="st0" d="M46.6,5.5c-0.4,0-0.9,0-1.3,0c-0.2,0-1.2-0.1-1.3,0c-0.1,0.1-0.1,2.4,0,2.6c0.1,0.1,2.4,0.1,2.6,0
		c0.1-0.1,0-1,0-1.2C46.6,6.4,46.6,6,46.6,5.5z"/>
	<path class="st0" d="M46.5,22.5c0-1.8,0-3.7,0-5.5c0-1.4,0-2.7,0-4.1c0-0.5,0-1,0-1.5c0-0.2,0.1-0.7,0-0.9c-0.1-0.2-2-0.3-2.3-0.1
		c-0.3,0.2-0.2,0.9-0.2,1.4c0,2.6,0,5.1,0,7.7c0,0.6,0,1.2,0,1.8c0,0.2-0.1,0.9,0,1C44.3,22.8,46,22.5,46.5,22.5z"/>
	<path class="st0" d="M57.5,22.5c0.7,0,1.4,0.1,2,0c0.5-0.1,0.4,0,0.4-0.5c0-1.7,0-3.3,0-5c0-1.4,0.2-3-0.4-4.3
		c-1.1-2.8-5.1-3.1-7-1c0-0.3,0.1-0.7,0-1c-0.1-0.4,0.1-0.2-0.3-0.3c-0.2-0.1-1.9-0.2-2.1,0c-0.1,0.1,0,0.7,0,0.8c0,0.7,0,1.3,0,2
		c0,1.8,0,3.5,0,5.3c0,0.8,0,1.6,0,2.4c0,0.4-0.1,1.1,0,1.5c0.1,0.4,0.1,0.2,0.7,0.2c0.3,0,1.6,0.2,1.8,0c0.2-0.2,0-1.1,0-1.4
		c0-0.9,0-1.7,0-2.6c0-1.2-0.1-2.5,0-3.7c0.1-1.1,0.7-2.1,1.8-2.3c1-0.2,2.1,0,2.6,0.9c0.8,1.2,0.4,3.4,0.4,4.7
		C57.5,19.6,57.5,21.1,57.5,22.5z"/>
	<path class="st0" d="M73.7,10.5c-0.8,0-2-0.2-2.8,0c-0.5,0.2-0.8,0.7-1.1,1.1c-1.2,1.5-2.5,3-3.7,4.4c0-2.8,0-5.6,0-8.5
		c0-0.5,0.1-1.2,0-1.7c-0.1-0.4-0.1-0.3-0.7-0.3c-0.2,0-1.6-0.2-1.8,0c-0.1,0.1,0,0.6,0,0.7c0,3.2,0,6.4,0,9.6c0,1.6,0,3.2,0,4.8
		c0,0.5-0.2,1.6,0.2,1.8c0.2,0.1,2.1,0.1,2.3,0c0.2-0.2,0-1.8,0-2.2c0-0.6-0.1-1.1,0.2-1.6c0.4-0.6,1.1-1.2,1.6-1.8
		c0.9,1.5,1.9,3.1,2.8,4.6c0.3,0.5,0.4,0.9,0.9,1c0.8,0.2,1.8,0,2.7,0c-1.5-2.3-3.2-4.6-4.5-7c-0.2-0.3-0.2-0.2-0.1-0.5
		c0.2-0.5,1-1.1,1.3-1.5C71.9,12.5,72.8,11.5,73.7,10.5z"/>
	<path class="st0" d="M97.2,15.1c0,1.5,0,3.1,0,4.6c0,0.8-0.1,1.7,0,2.5c0,0.1,0,0.3,0,0.4c0.1,0.1,1.1,0.1,1.2,0c0.2-0.1,0-1,0-1.3
		c0-1,0-2,0-2.9c0-1.6,0.2-3.5-0.2-5.1c-1.1-3.7-6.4-3.6-8.2-0.6c-1.4-2.7-5.5-2.9-7.4-0.6c0-0.3,0.2-1.1,0-1.3
		c-0.1-0.1-1-0.2-1.2-0.1c-0.2,0.2-0.1,0.9-0.1,1.2c0,2.3,0,4.6,0,6.9c0,1,0,2,0,3c0,0.8-0.2,0.8,0.6,0.8c0.3,0,0.5,0.1,0.6-0.1
		c0.1-0.2,0-0.8,0-1.1c0-1.2,0-2.4,0-3.5c0-1.9-0.4-4.8,1.6-5.9c1.2-0.7,3.1-0.6,4.1,0.4c0.8,0.8,1,1.9,1,3c0,2.1,0,4.3,0,6.4
		c0,0.1-0.1,0.6,0,0.7c0.1,0.1,1,0.1,1.1,0c0.3-0.2,0.1-1.2,0.1-1.6c0-2.2-0.2-4.5,0-6.6c0.2-2,2-3,3.9-2.8
		C96.3,11.8,97.2,13.3,97.2,15.1z"/>
	<path class="st0" d="M106.4,22.7c3.5,0,4.8-3.1,4.8-6.1c0-3.1-1.3-6.1-4.8-6.1c-3.5,0-4.8,3.1-4.8,6.1
		C101.6,19.6,102.9,22.7,106.4,22.7z M103.9,12.5c1.8-1.8,5-1,5.8,1.4c0.5,1.8,0.6,5.1-0.8,6.6c-1.8,1.9-5,1-5.8-1.4
		C102.5,17.3,102.4,14,103.9,12.5z"/>
	<path class="st0" d="M119.3,10.4c-1.5,0-2.7,0.5-3.6,1.7c0-2.1,0-4.2,0-6.4c0-0.1,0.1-0.8,0-0.9c-0.1-0.1-1.2-0.1-1.2,0
		c-0.1,0.2,0,1,0,1.2c0,4.9,0,9.8,0,14.7c0,0.3-0.2,1.6,0,1.8c0.1,0.1,1.2,0.1,1.2,0c0.2-0.2,0-1.3,0-1.5c1.1,1.4,2.8,1.9,4.5,1.6
		c1.9-0.4,2.9-1.9,3.3-3.7C124.3,15.5,123.7,10.4,119.3,10.4z M119.1,21.6c-2.8,0-3.4-2.7-3.4-5c0-2.3,0.5-5,3.4-5
		c2.8,0,3.4,2.7,3.4,5C122.5,18.9,122,21.6,119.1,21.6z"/>
	<path class="st0" d="M126.9,6.4c0.3,0,1.4,0.2,1.6,0c0.1-0.1,0.1-1.5,0-1.6c-0.1-0.1-1.5-0.1-1.6,0C126.7,5,126.9,6.1,126.9,6.4z"
		/>
	<path class="st0" d="M127.1,22.5c0.2,0,1.2,0.1,1.3,0c0.1-0.1,0-0.3,0-0.4c0.1-0.8,0-1.7,0-2.5c0-2.4,0-4.8,0-7.2
		c0-0.3,0.2-1.5,0-1.8c-0.1-0.1-0.9-0.1-1,0c-0.4,0.1-0.1-0.1-0.3,0.2c-0.2,0.5,0,1.7,0,2.3c0,1.2,0,2.5,0,3.7
		C127.1,18.7,127.1,20.6,127.1,22.5z"/>
	<path class="st0" d="M133.5,19.4c0-2.6,0-5.1,0-7.7c0-1.7,0-3.3,0-5c0-0.5,0.1-1.1,0-1.5c-0.1-0.4,0.1-0.3-0.4-0.4
		c-0.5-0.1-0.8-0.1-0.9,0.2c-0.1,0.3,0,1,0,1.3c0,1.6,0,3.2,0,4.8c0,2.7-0.1,5.5,0,8.2c0,1,0.3,2,1.1,2.6c0.5,0.4,1.2,0.5,1.8,0.5
		c0.2,0,0.9,0.1,1.1,0c0.1-0.1,0.1-0.8,0-0.9c-0.1-0.2,0.1-0.1-0.1-0.2c-0.1-0.1-0.5,0-0.6,0C134.1,21.4,133.5,20.8,133.5,19.4z"/>
	<path class="st0" d="M138.4,6.4c0.3,0,1.4,0.2,1.6,0c0.1-0.1,0.1-1.5,0-1.6c-0.1-0.1-1.5-0.1-1.6,0C138.3,5,138.4,6.1,138.4,6.4z"
		/>
	<path class="st0" d="M138.6,22.5c0.2,0,1.2,0.1,1.3,0c0.1-0.1,0-0.3,0-0.4c0.1-0.8,0-1.7,0-2.5c0-2.4,0-4.8,0-7.2
		c0-0.3,0.2-1.5,0-1.8c-0.1-0.1-0.9-0.1-1,0c-0.4,0.1-0.1-0.1-0.3,0.2c-0.2,0.5,0,1.7,0,2.3c0,1.2,0,2.5,0,3.7
		C138.6,18.7,138.6,20.6,138.6,22.5z"/>
	<path class="st0" d="M145.4,6.7c-0.3,0-0.9-0.1-1.1,0c-0.2,0.1-0.1,0.1-0.1,0.4c-0.1,0.9,0,2,0,2.9c0,0.9-0.6,0.3-1.3,0.5
		c-0.4,0.1-0.3,0-0.3,0.5c0,0.5,0,0.4,0.5,0.5c0.2,0,1-0.1,1.2,0c0.1,0.1,0,0.3,0,0.4c0.1,0.8,0,1.6,0,2.4c0,1.7,0,3.3,0,5
		c0,1,0.2,2,1.1,2.6c0.5,0.4,1.2,0.6,1.8,0.6c0.2,0,1,0.1,1.1,0c0.1-0.1,0.1-0.9,0-1c-0.1-0.2-0.5-0.1-0.8-0.1
		c-1.3-0.1-1.8-0.8-1.9-2c-0.1-1.6,0-3.2,0-4.7c0-0.9,0-1.7,0-2.6c0-0.6-0.1-0.6,0.5-0.6c0.5,0,1.1,0,1.6,0c0.5,0,0.4,0.1,0.5-0.3
		c0.1-0.6,0-0.5-0.3-0.6c-0.5-0.1-1.1,0-1.6,0c-0.2,0-0.7,0.1-0.8,0c-0.1-0.1,0-0.9,0-1.1C145.4,8.5,145.4,7.6,145.4,6.7z"/>
	<path class="st0" d="M157.5,10.6c-1.2,3.5-2.4,7-3.6,10.5c-0.7-2.1-1.4-4.2-2.2-6.3c-0.4-1.2-0.8-2.4-1.2-3.5
		c0-0.1-0.1-0.6-0.2-0.7c-0.2-0.2-1.1,0-1.4,0c0.9,2.5,1.8,5,2.7,7.5c0.5,1.3,1,2.6,1.4,3.9c0.3,0.9-0.2,1.7-0.6,2.7
		c-0.2,0.7-0.4,1.5-1,1.9c-0.4,0.3-0.9,0.3-1.4,0.3c-0.5,0-0.4-0.1-0.5,0.4c0,0.2-0.1,0.7,0.1,0.7c0.2,0.2,1.4-0.1,1.6-0.1
		c1.1-0.3,1.6-1,2-2.1c0.9-2.4,1.8-4.8,2.6-7.2c1-2.7,1.9-5.3,2.9-8C158.4,10.6,158,10.6,157.5,10.6z"/>
	<path class="st0" d="M53.5,32.5c0-0.8,0-1.6,0-2.3c0-0.1,0.1-1.9-0.3-1.5c-0.1,0.1,0,0.7,0,0.8c0,0.5,0,1.1,0,1.6
		c0,0.6-0.3,2.1,0.7,2.1C54,32.9,53.5,33,53.5,32.5z"/>
	<path class="st0" d="M57.8,32.5c0-0.8,0-1.6,0-2.3c0-0.1,0.1-1.9-0.3-1.5c-0.1,0.1,0,0.7,0,0.8c0,0.5,0,1.1,0,1.6
		c0,0.6-0.3,2.1,0.7,2.1C58.3,32.9,57.8,33,57.8,32.5z"/>
	<path class="st0" d="M55.6,32.5c0-1.2,0-2.3,0-3.5c0-0.7,0-1.4,0-2.1c0-0.1,0.1-0.9-0.3-0.6c-0.1,0.1,0,1.1,0,1.2
		c0,0.8,0,1.6,0,2.3c0,0.7-0.4,3.3,0.7,3.3C56.1,32.9,55.6,33,55.6,32.5z"/>
	<path class="st0" d="M53.6,27.3c0-0.3-0.5-0.3-0.5,0C53.1,27.6,53.6,27.6,53.6,27.3z"/>
	<path class="st0" d="M39.2,31.9c-0.5-1.1-1-2.1-1.5-3.2c-0.3-0.6-0.6-1.2-0.9-1.9c-0.1-0.2-0.2-0.6-0.4-0.4c-0.2,0.2,0,1.2,0,1.4
		c0,0.8,0,1.6,0,2.4c0,0.7,0,1.5,0,2.2c0,0.3-0.2,0.8,0.3,0.7c0-2,0-3.9,0-5.9c0.4,0.9,0.8,1.8,1.3,2.7c0.2,0.3,0.8,2.3,1.2,2.3
		c0.4,0,1-1.9,1.2-2.3c0.4-0.9,0.8-1.8,1.3-2.7c0,2,0,3.9,0,5.9c0.5,0.2,0.3-0.4,0.3-0.7c0-0.7,0-1.4,0-2.1c0-0.8,0-1.6,0-2.4
		c0-0.3,0.2-1.3,0-1.5c-0.2-0.2-0.3,0.2-0.4,0.3c-0.3,0.6-0.6,1.2-0.9,1.8C40.2,29.7,39.7,30.8,39.2,31.9z"/>
	<path class="st0" d="M45,28.6c-2.6,0-2.6,4.6,0,4.6C47.6,33.2,47.6,28.6,45,28.6z M45,32.9c-2.2,0-2.2-4.1,0-4.1
		C47.2,28.8,47.3,32.9,45,32.9z"/>
	<path class="st0" d="M49.9,28.6c-0.5,0-1.1,0.1-1.6,0.4c0-0.4,0-0.7,0-1.1c0-0.3,0.2-1.2,0-1.4c-0.4-0.5-0.3,1.1-0.3,1.2
		c0,1.8,0,3.7,0,5.5c0.2,0,0.2-0.2,0.2-0.4c1.3,0.9,3.1,0.4,3.4-1.2C52,30.2,51.6,28.6,49.9,28.6z M49.9,32.9c-0.4,0-1.3,0-1.6-0.4
		c-0.1-0.2,0-0.8,0-1.1c0-0.4-0.3-1.9,0-2.3c0.3-0.5,1.7-0.5,2.1-0.3c0.6,0.2,0.9,0.7,1,1.3C51.7,31.4,51.4,32.9,49.9,32.9z"/>
	<path class="st0" d="M58,27.3c0-0.3-0.5-0.3-0.5,0C57.4,27.6,58,27.6,58,27.3z"/>
	<path class="st0" d="M64,32.5c0-0.8,0-1.6,0-2.3c0-0.1,0.1-1.9-0.3-1.5c-0.1,0.1,0,0.7,0,0.8c0,0.5,0,1.1,0,1.6
		c0,0.6-0.3,2.1,0.7,2.1C64.5,32.9,64,33,64,32.5z"/>
	<path class="st0" d="M73.1,32.8c-0.5-0.1-1.1-0.1-1.6-0.2c-0.4-0.1-1.4-0.4-0.6-0.9c0.3-0.2,1,0.1,1.3,0c0.4-0.1,0.8-0.2,1-0.6
		c0.4-0.6,0.4-1.9-0.3-2.3c0.3,0,0.7,0,1,0c0.1-0.4-0.6-0.2-0.9-0.2c-0.5,0-1-0.1-1.5,0c-1.4,0.1-2,2.3-0.7,3
		c-0.5,0.3-0.5,1.1,0.2,1.2c-0.8,0.2-1.5,1-1.2,1.8c0.3,0.8,1.4,0.9,2.1,0.8c0.7,0,1.8-0.2,2.1-0.9C74.5,33.7,73.9,33,73.1,32.8z
		 M70.4,30.2c0-1.8,2.8-1.8,2.8,0C73.2,32,70.4,32,70.4,30.2z M71.8,35.2c-0.9,0-2.2-0.3-1.7-1.5c0.4-0.8,1.2-0.9,1.9-0.8
		c0.6,0.1,1.6,0,1.8,0.6C74.4,34.8,72.6,35.2,71.8,35.2z"/>
	<path class="st0" d="M64.2,27.3c0-0.3-0.5-0.4-0.5,0C63.6,27.6,64.2,27.6,64.2,27.3z"/>
	<path class="st0" d="M67.6,28.6c-0.5,0-1.2,0.1-1.6,0.4c0-0.2-0.1-0.4-0.3-0.3c-0.1,0.1,0,0.8,0,0.9c0,0.9,0,1.8,0,2.7
		c0,0.1-0.1,1.3,0.3,0.8c0.1-0.1,0-0.6,0-0.8c0-0.5,0-1,0-1.5c0-0.6-0.2-1.4,0.3-1.7c0.9-0.5,2.3-0.4,2.4,0.8c0.1,0.8,0,1.6,0,2.3
		c0,0.2-0.1,1.4,0.3,0.9c0.1-0.2,0-1,0-1.3c0-0.5,0-1,0-1.5C69,29.3,68.8,28.6,67.6,28.6z"/>
	<path class="st0" d="M62.5,28.8c0-0.3-1-0.2-1.3-0.2c-0.3,0-1.6-0.2-1.9,0c-0.3,0.3,1,0.2,1,0.2c0.6,0,1.2,0,1.8,0
		c-0.6,0.9-1.3,1.7-1.9,2.6c-0.3,0.4-0.9,1-1,1.4c-0.1,0.4-0.1,0.2,0.3,0.3c0.7,0.1,1.4,0,2.1,0c0.1,0,1.2,0.1,0.9-0.2
		c-0.1-0.2-1.3,0-1.5,0c-0.5,0-1,0-1.6,0C60.5,31.6,61.5,30.2,62.5,28.8z"/>
	<path class="st0" d="M125.9,30.7c-0.7-0.1-1.7-0.4-1.2-1.4c0.4-0.8,1.8-0.5,2.5-0.3c0.2-0.6-2.3-0.5-2.7,0.1
		c-0.6,0.8,0,1.5,0.9,1.7c0.8,0.2,2,0.2,1.7,1.3c-0.3,1.1-1.9,0.8-2.7,0.6c-0.2,0.7,2.5,0.5,2.9-0.3
		C127.8,31.4,126.8,30.8,125.9,30.7z"/>
	<path class="st0" d="M121.8,30.7c-0.7-0.1-1.7-0.4-1.2-1.4c0.4-0.8,1.8-0.5,2.5-0.3c0.2-0.6-2.3-0.5-2.7,0.1
		c-0.6,0.8,0,1.5,0.9,1.7c0.8,0.2,2,0.2,1.7,1.3c-0.3,1.1-1.9,0.8-2.7,0.6c-0.2,0.7,2.5,0.5,2.9-0.3
		C123.7,31.4,122.7,30.8,121.8,30.7z"/>
	<path class="st0" d="M117.4,28.6c-1.7,0-2.1,1.7-1.8,3.1c0.1,0.6,0.4,1.2,1.1,1.4c0.4,0.1,2.3,0.2,2.2-0.4c-1.6,0.5-3,0.1-3-1.7
		c0.4,0,0.9,0,1.3,0c0.4,0,1.4,0.2,1.7,0c0.3-0.2,0.2-0.8,0.1-1.3C118.8,28.9,118.3,28.6,117.4,28.6z M115.8,30.8
		c0-1,0.4-1.9,1.6-1.9c1.2,0,1.4,0.9,1.4,1.9C117.8,30.8,116.8,30.8,115.8,30.8z"/>
	<path class="st0" d="M112.9,28.6c-0.5,0-1.2,0.1-1.6,0.4c0-0.2-0.1-0.4-0.3-0.3c-0.1,0.1,0,0.8,0,0.9c0,0.9,0,1.8,0,2.7
		c0,0.1-0.1,1.3,0.3,0.8c0.1-0.1,0-0.6,0-0.8c0-0.5,0-1,0-1.5c0-0.6-0.2-1.4,0.3-1.7c0.9-0.5,2.3-0.4,2.4,0.8c0.1,0.8,0,1.6,0,2.3
		c0,0.2-0.1,1.4,0.3,0.9c0.1-0.2,0-1,0-1.3c0-0.5,0-1,0-1.5C114.4,29.3,114.2,28.6,112.9,28.6z"/>
	<path class="st0" d="M109.6,27.3c0-0.3-0.5-0.4-0.5,0C109,27.6,109.6,27.6,109.6,27.3z"/>
	<path class="st0" d="M109.4,32.5c0-0.8,0-1.6,0-2.3c0-0.1,0.1-1.9-0.3-1.5c-0.1,0.1,0,0.7,0,0.8c0,0.5,0,1.1,0,1.6
		c0,0.6-0.3,2.1,0.7,2.1C109.9,32.9,109.4,33,109.4,32.5z"/>
	<path class="st0" d="M106.3,30.7c-0.7-0.1-1.7-0.4-1.2-1.4c0.4-0.8,1.8-0.5,2.5-0.3c0.2-0.6-2.3-0.5-2.7,0.1
		c-0.6,0.8,0,1.5,0.9,1.7c0.8,0.2,2,0.2,1.7,1.3c-0.3,1.1-1.9,0.8-2.7,0.6c-0.2,0.7,2.5,0.5,2.9-0.3
		C108.2,31.4,107.2,30.8,106.3,30.7z"/>
	<path class="st0" d="M103.3,32.6c-0.6,0.4-2,0.7-2.5,0.1c-0.3-0.3-0.3-0.8-0.3-1.2c0-0.7,0-1.4,0-2c0-0.1,0.1-1.1-0.3-0.8
		c-0.3,0.2,0,2.6,0,3c0,0.5,0,1,0.4,1.3c0.7,0.5,2,0.3,2.7-0.2c0,0.4,0.2,0.4,0.3,0.2c0.1-0.3,0-1,0-1.3c0-0.6,0-1.2,0-1.8
		c0-0.3,0.1-1,0-1.2c-0.4-0.6-0.3,1-0.3,1.2C103.3,30.8,103.3,31.7,103.3,32.6z"/>
	<path class="st0" d="M97.7,29.6c1.1-0.1,1.6-1.4,1.2-2.3c-0.4-0.8-1.3-0.9-2.1-0.9c-0.3,0-1.7-0.2-1.9,0c-0.1,0.1,0,0.9,0,1.1
		c0,1.6,0,3.1,0,4.7c0,0.2-0.1,0.9,0,1c0.2,0.2,1.6,0,1.9,0c0.9,0,1.9-0.1,2.3-1.1C99.6,31,99,29.6,97.7,29.6z M95.2,26.6
		c0.8,0,2.2-0.2,2.9,0.2c1.3,0.8,0.4,2.5-0.9,2.6c-0.5,0-1.9,0.2-2.1-0.1c-0.2-0.3,0-1.2,0-1.5C95.2,27.5,95.2,27,95.2,26.6z
		 M97.1,32.9c-0.5,0-0.9,0-1.4,0c-0.6,0-0.4,0.1-0.5-0.4c-0.1-0.4-0.2-2.5,0.1-2.8c0.2-0.2,1.3,0,1.6,0c0.5,0,1.2,0,1.6,0.3
		c0.5,0.4,0.6,1.1,0.4,1.7C98.7,32.6,97.9,32.9,97.1,32.9z"/>
	<path class="st0" d="M90.2,29c0-0.5-0.2-0.4-0.3-0.1c-0.1,0.5,0,1.1,0,1.6c0,0.4-0.2,2.5,0.1,2.7c0.4,0.2,0.2-0.5,0.2-0.7
		c0-0.6,0-1.2,0-1.8c0-0.3-0.1-1.1,0-1.4c0.2-0.5,1.5-0.5,2-0.4C92.3,28.2,90.5,28.8,90.2,29z"/>
	<path class="st0" d="M88.4,32.6c-0.6,0.4-2,0.7-2.5,0.1c-0.3-0.3-0.3-0.8-0.3-1.2c0-0.7,0-1.4,0-2c0-0.1,0.1-1.1-0.3-0.8
		c-0.3,0.2,0,2.6,0,3c0,0.5,0,1,0.4,1.3c0.7,0.5,2,0.3,2.7-0.2c0,0.4,0.2,0.4,0.3,0.2c0.1-0.3,0-1,0-1.3c0-0.6,0-1.2,0-1.8
		c0-0.3,0.1-1,0-1.2c-0.4-0.6-0.3,1-0.3,1.2C88.4,30.8,88.4,31.7,88.4,32.6z"/>
	<path class="st0" d="M82.3,28.6c-2.6,0-2.6,4.6,0,4.6C84.9,33.2,84.9,28.6,82.3,28.6z M82.3,32.9c-2.2,0-2.2-4.1,0-4.1
		C84.5,28.8,84.5,32.9,82.3,32.9z"/>
	<path class="st0" d="M80.4,26.4c-0.7,1.2-1.5,2.5-2.2,3.7c-0.4-0.7-0.8-1.4-1.3-2.1c-0.2-0.4-0.7-1.8-1.3-1.6
		c0.7,1.2,1.5,2.4,2.2,3.6c0.3,0.5,0.2,0.7,0.2,1.3c0,0.3-0.2,1.9,0.1,1.9c0.3,0,0.1-1.6,0.1-1.9c0-0.6,0-0.8,0.2-1.2
		c0.6-1.3,1.5-2.5,2.2-3.7C80.7,26.4,80.5,26.3,80.4,26.4z"/>
</g>
</svg>
